<?xml version="1.0" standalone="no"?>
<!DOCTYPE svg PUBLIC "-//W3C//DTD SVG 20010904//EN"
 "http://www.w3.org/TR/2001/REC-SVG-20010904/DTD/svg10.dtd">
<svg version="1.0" xmlns="http://www.w3.org/2000/svg"
 width="150.000000pt" height="150.000000pt" viewBox="0 0 150.000000 150.000000"
 preserveAspectRatio="xMidYMid meet">

<g transform="translate(0.000000,150.000000) scale(0.100000,-0.100000)"
fill="#000000" stroke="none">
<path d="M655 1484 c-79 -13 -158 -39 -245 -81 -81 -39 -108 -59 -185 -137
-70 -70 -101 -110 -134 -174 -49 -96 -91 -249 -91 -335 0 -78 18 -186 36 -215
26 -41 51 -28 166 91 60 61 113 119 118 128 11 20 -14 59 -38 59 -9 0 -51 -34
-93 -76 -50 -50 -81 -74 -89 -69 -9 6 -11 30 -7 89 14 186 70 312 196 437 135
134 274 192 461 193 99 0 200 -23 283 -66 45 -22 85 -21 101 4 23 38 -34 77
-179 123 -79 26 -229 40 -300 29z"/>
<path d="M929 1170 c-182 -5 -209 -12 -209 -50 0 -36 24 -42 175 -41 80 1 145
-1 145 -4 0 -4 -184 -189 -410 -412 -292 -288 -410 -412 -410 -427 0 -27 18
-46 44 -46 14 0 161 141 431 410 226 226 414 410 418 410 4 0 7 -63 7 -139 0
-114 3 -143 16 -155 20 -21 30 -20 54 4 19 19 20 33 20 220 0 187 -1 201 -20
220 -13 13 -31 19 -52 18 -18 -1 -112 -5 -209 -8z"/>
<path d="M1322 1128 c-18 -18 -15 -45 12 -102 37 -79 58 -182 59 -281 2 -341
-269 -623 -618 -642 -97 -5 -215 9 -215 26 0 4 42 20 93 36 108 33 119 40 115
73 -5 41 -29 48 -93 28 -31 -10 -59 -15 -63 -12 -3 4 63 73 146 154 84 81 152
152 152 159 0 18 -29 43 -51 43 -12 0 -69 -47 -137 -112 -65 -62 -168 -161
-230 -220 -92 -88 -112 -112 -112 -136 0 -37 19 -53 100 -85 108 -42 151 -51
250 -50 226 1 450 107 586 277 152 190 205 438 140 659 -48 161 -94 225 -134
185z"/>
<path d="M360 949 c-36 -67 55 -116 97 -53 14 22 14 26 -1 49 -22 33 -80 35
-96 4z"/>
<path d="M547 843 c-211 -199 -447 -439 -447 -454 0 -10 10 -25 22 -33 20 -14
24 -14 47 1 15 9 49 39 76 67 28 28 134 134 238 235 193 189 212 217 168 241
-11 5 -23 10 -26 10 -4 0 -39 -30 -78 -67z"/>
<path d="M923 360 c-49 -20 -32 -110 21 -110 52 0 76 75 34 104 -25 18 -25 18
-55 6z"/>
</g>
</svg>
